<svg xmlns="http://www.w3.org/2000/svg" xmlns:xlink="http://www.w3.org/1999/xlink" width="1920" zoomAndPan="magnify" viewBox="0 0 1440 809.999993" height="1080" preserveAspectRatio="xMidYMid meet" version="1.0"><defs><clipPath id="a7b2aac07d"><path d="M 620.09375 289.800781 L 819.59375 289.800781 L 819.59375 520.050781 L 620.09375 520.050781 Z M 620.09375 289.800781 " clip-rule="nonzero"/></clipPath></defs><rect x="-144" width="1728" fill="#ffffff" y="-80.999999" height="971.999992" fill-opacity="1"/><g clip-path="url(#a7b2aac07d)"><path fill="#121212" d="M 711.65625 331.136719 C 711.65625 315.519531 724.628906 303.9375 747.175781 303.9375 C 772.742188 303.9375 794.402344 318.417969 794.402344 345.742188 L 797.050781 345.742188 L 797.050781 315.519531 L 794.402344 315.519531 C 794.402344 320.179688 793.773438 322.570312 792.261719 322.570312 C 791.128906 322.570312 789.617188 321.691406 787.226562 318.667969 C 778.410156 308.34375 762.917969 301.796875 745.789062 301.796875 C 716.441406 301.796875 695.285156 320.558594 695.285156 342.972656 C 695.285156 364.628906 714.300781 378.859375 741.003906 389.8125 C 781.933594 407.066406 803.21875 431.117188 803.21875 460.078125 C 803.21875 461.464844 803.21875 462.847656 803.09375 464.234375 C 794.53125 474.308594 783.445312 479.21875 770.472656 479.21875 C 757.375 479.21875 741.632812 474.558594 708.761719 454.664062 L 685.335938 441.316406 C 681.554688 439.554688 677.652344 438.042969 673.871094 436.785156 C 677.777344 418.523438 689.867188 403.664062 706.617188 400.519531 C 703.722656 402.53125 701.832031 405.933594 701.832031 409.710938 C 701.832031 415.878906 706.871094 420.917969 713.167969 420.917969 C 719.339844 420.917969 724.378906 415.878906 724.378906 409.710938 C 724.378906 403.539062 719.339844 398.503906 713.167969 398.503906 C 713.042969 398.503906 712.917969 398.503906 712.789062 398.503906 C 691.632812 398.628906 675.382812 414.621094 669.84375 435.648438 C 664.050781 434.140625 658.128906 433.257812 652.085938 433.257812 L 652.085938 312.625 C 652.085938 296.882812 655.988281 290.714844 666.0625 290.714844 L 666.0625 289.832031 L 620.09375 289.832031 L 620.09375 290.714844 C 630.167969 290.714844 634.074219 296.882812 634.074219 312.625 L 634.074219 415.25 C 634.074219 430.992188 630.167969 437.160156 620.09375 437.160156 L 620.09375 438.042969 L 632.5625 438.042969 C 648.558594 438.042969 657.375 441.441406 667.953125 447.359375 C 667.828125 448.746094 667.703125 450.132812 667.703125 451.515625 C 667.703125 489.796875 701.582031 520.019531 745.789062 520.019531 C 789.367188 520.019531 819.59375 490.300781 819.59375 447.109375 C 819.59375 416.007812 803.851562 397.242188 760.273438 377.097656 C 726.519531 361.355469 711.65625 347.757812 711.65625 331.136719 Z M 800.574219 477.078125 C 793.523438 498.359375 772.742188 512.335938 743.898438 512.335938 C 704.101562 512.335938 672.867188 485.515625 672.488281 450.003906 L 706.117188 469.523438 C 738.359375 488.160156 754.351562 491.9375 767.703125 491.9375 C 782.0625 491.9375 792.390625 487.65625 800.574219 477.078125 Z M 800.574219 477.078125 " fill-opacity="1" fill-rule="nonzero"/></g><path stroke-linecap="butt" transform="matrix(0.67082, -0.33541, 0.33541, 0.67082, 682.464692, 363.908058)" fill="none" stroke-linejoin="miter" d="M 0.00125949 2.001078 L 2.237328 2.001078 " stroke="#000000" stroke-width="4" stroke-opacity="1" stroke-miterlimit="4"/></svg>